<svg xmlns="http://www.w3.org/2000/svg" xmlns:xlink="http://www.w3.org/1999/xlink" width="500" zoomAndPan="magnify" viewBox="0 0 375 374.999991" height="500" preserveAspectRatio="xMidYMid meet" version="1.0"><defs><g/><clipPath id="316548292f"><path d="M 46.269531 140 L 99 140 L 99 203 L 46.269531 203 Z M 46.269531 140 " clip-rule="nonzero"/></clipPath><clipPath id="0554e766bb"><path d="M 70.335938 144.460938 L 89.789062 144.460938 L 89.789062 163.917969 L 70.335938 163.917969 Z M 70.335938 144.460938 " clip-rule="nonzero"/></clipPath><clipPath id="0c6fdd9ea3"><path d="M 74.15625 166.496094 L 67.722656 148.40625 L 85.8125 141.972656 L 92.246094 160.0625 Z M 74.15625 166.496094 " clip-rule="nonzero"/></clipPath><clipPath id="a350572d67"><path d="M 70.941406 157.449219 C 72.714844 162.445312 78.207031 165.054688 83.203125 163.277344 C 88.199219 161.5 90.808594 156.011719 89.03125 151.015625 C 87.253906 146.019531 81.765625 143.410156 76.769531 145.1875 C 71.773438 146.964844 69.164062 152.453125 70.941406 157.449219 Z M 70.941406 157.449219 " clip-rule="nonzero"/></clipPath><clipPath id="f5976e81bb"><path d="M 70.335938 144.460938 L 89.789062 144.460938 L 89.789062 163.917969 L 70.335938 163.917969 Z M 70.335938 144.460938 " clip-rule="nonzero"/></clipPath><clipPath id="1c006f60c0"><path d="M 74.15625 166.496094 L 67.722656 148.40625 L 85.8125 141.972656 L 92.246094 160.0625 Z M 74.15625 166.496094 " clip-rule="nonzero"/></clipPath><clipPath id="ee3565e9a3"><path d="M 74.15625 166.496094 L 67.71875 148.386719 L 85.824219 141.949219 L 92.265625 160.054688 Z M 74.15625 166.496094 " clip-rule="nonzero"/></clipPath><clipPath id="1aac72049b"><path d="M 70.941406 157.449219 C 72.714844 162.445312 78.207031 165.054688 83.203125 163.277344 C 88.199219 161.5 90.808594 156.011719 89.03125 151.015625 C 87.253906 146.019531 81.765625 143.410156 76.769531 145.1875 C 71.773438 146.964844 69.164062 152.453125 70.941406 157.449219 Z M 70.941406 157.449219 " clip-rule="nonzero"/></clipPath><clipPath id="bad9967463"><path d="M 57.789062 172.109375 L 77.246094 172.109375 L 77.246094 191.566406 L 57.789062 191.566406 Z M 57.789062 172.109375 " clip-rule="nonzero"/></clipPath><clipPath id="edf80b1a42"><path d="M 61.671875 194.113281 L 55.238281 176.023438 L 73.328125 169.585938 L 79.761719 187.679688 Z M 61.671875 194.113281 " clip-rule="nonzero"/></clipPath><clipPath id="11b64a1e86"><path d="M 58.453125 185.066406 C 60.230469 190.0625 65.722656 192.671875 70.714844 190.894531 C 75.710938 189.117188 78.320312 183.628906 76.542969 178.632812 C 74.769531 173.636719 69.277344 171.027344 64.28125 172.804688 C 59.289062 174.582031 56.679688 180.070312 58.453125 185.066406 Z M 58.453125 185.066406 " clip-rule="nonzero"/></clipPath><clipPath id="43067bffb1"><path d="M 57.789062 172.109375 L 77.246094 172.109375 L 77.246094 191.566406 L 57.789062 191.566406 Z M 57.789062 172.109375 " clip-rule="nonzero"/></clipPath><clipPath id="25c15a419c"><path d="M 61.671875 194.113281 L 55.238281 176.023438 L 73.328125 169.585938 L 79.761719 187.679688 Z M 61.671875 194.113281 " clip-rule="nonzero"/></clipPath><clipPath id="8b316bfe12"><path d="M 61.671875 194.113281 L 55.230469 176.003906 L 73.339844 169.566406 L 79.78125 187.671875 Z M 61.671875 194.113281 " clip-rule="nonzero"/></clipPath><clipPath id="03fd392d5a"><path d="M 58.453125 185.066406 C 60.230469 190.0625 65.722656 192.671875 70.714844 190.894531 C 75.710938 189.117188 78.320312 183.628906 76.542969 178.632812 C 74.769531 173.636719 69.277344 171.027344 64.28125 172.804688 C 59.289062 174.582031 56.679688 180.070312 58.453125 185.066406 Z M 58.453125 185.066406 " clip-rule="nonzero"/></clipPath><clipPath id="32a6b9accd"><path d="M 94.65625 158.796875 L 114.109375 158.796875 L 114.109375 178.253906 L 94.65625 178.253906 Z M 94.65625 158.796875 " clip-rule="nonzero"/></clipPath><clipPath id="aa20dac272"><path d="M 98.625 180.792969 L 92.191406 162.703125 L 110.28125 156.273438 L 116.714844 174.363281 Z M 98.625 180.792969 " clip-rule="nonzero"/></clipPath><clipPath id="663c741fdd"><path d="M 95.40625 171.75 C 97.183594 176.746094 102.671875 179.355469 107.667969 177.578125 C 112.664062 175.800781 115.273438 170.3125 113.496094 165.316406 C 111.722656 160.320312 106.230469 157.710938 101.234375 159.488281 C 96.242188 161.265625 93.628906 166.753906 95.40625 171.75 Z M 95.40625 171.75 " clip-rule="nonzero"/></clipPath><clipPath id="1469fe778b"><path d="M 94.65625 158.796875 L 114.109375 158.796875 L 114.109375 178.253906 L 94.65625 178.253906 Z M 94.65625 158.796875 " clip-rule="nonzero"/></clipPath><clipPath id="13af1de1b2"><path d="M 98.625 180.792969 L 92.191406 162.703125 L 110.28125 156.273438 L 116.714844 174.363281 Z M 98.625 180.792969 " clip-rule="nonzero"/></clipPath><clipPath id="8582b83b67"><path d="M 98.625 180.792969 L 92.183594 162.6875 L 110.292969 156.246094 L 116.730469 174.355469 Z M 98.625 180.792969 " clip-rule="nonzero"/></clipPath><clipPath id="3e66f0f8ee"><path d="M 95.40625 171.75 C 97.183594 176.746094 102.671875 179.355469 107.667969 177.578125 C 112.664062 175.800781 115.273438 170.3125 113.496094 165.316406 C 111.722656 160.320312 106.230469 157.710938 101.234375 159.488281 C 96.242188 161.265625 93.628906 166.753906 95.40625 171.75 Z M 95.40625 171.75 " clip-rule="nonzero"/></clipPath><clipPath id="af215a0b9a"><path d="M 81.085938 185.679688 L 100.542969 185.679688 L 100.542969 205.132812 L 81.085938 205.132812 Z M 81.085938 185.679688 " clip-rule="nonzero"/></clipPath><clipPath id="3a3673c781"><path d="M 85.03125 207.765625 L 78.597656 189.671875 L 96.6875 183.238281 L 103.121094 201.328125 Z M 85.03125 207.765625 " clip-rule="nonzero"/></clipPath><clipPath id="00c1a1f217"><path d="M 81.8125 198.71875 C 83.589844 203.714844 89.078125 206.324219 94.074219 204.546875 C 99.070312 202.769531 101.679688 197.28125 99.902344 192.285156 C 98.125 187.289062 92.636719 184.679688 87.640625 186.457031 C 82.644531 188.234375 80.035156 193.722656 81.8125 198.71875 Z M 81.8125 198.71875 " clip-rule="nonzero"/></clipPath><clipPath id="8fd3d2a6dd"><path d="M 81.085938 185.679688 L 100.542969 185.679688 L 100.542969 205.132812 L 81.085938 205.132812 Z M 81.085938 185.679688 " clip-rule="nonzero"/></clipPath><clipPath id="e7ce50c126"><path d="M 85.03125 207.765625 L 78.597656 189.671875 L 96.6875 183.238281 L 103.121094 201.328125 Z M 85.03125 207.765625 " clip-rule="nonzero"/></clipPath><clipPath id="44728a2a81"><path d="M 85.03125 207.765625 L 78.589844 189.65625 L 96.695312 183.214844 L 103.136719 201.324219 Z M 85.03125 207.765625 " clip-rule="nonzero"/></clipPath><clipPath id="78c489b9cd"><path d="M 81.8125 198.71875 C 83.589844 203.714844 89.078125 206.324219 94.074219 204.546875 C 99.070312 202.769531 101.679688 197.28125 99.902344 192.285156 C 98.125 187.289062 92.636719 184.679688 87.640625 186.457031 C 82.644531 188.234375 80.035156 193.722656 81.8125 198.71875 Z M 81.8125 198.71875 " clip-rule="nonzero"/></clipPath><clipPath id="af219bf79d"><path d="M 118 172.367188 L 137.40625 172.367188 L 137.40625 191.820312 L 118 191.820312 Z M 118 172.367188 " clip-rule="nonzero"/></clipPath><clipPath id="78138fd47d"><path d="M 121.851562 194.371094 L 115.417969 176.28125 L 133.507812 169.847656 L 139.941406 187.9375 Z M 121.851562 194.371094 " clip-rule="nonzero"/></clipPath><clipPath id="31c26acbac"><path d="M 118.636719 185.324219 C 120.410156 190.320312 125.902344 192.929688 130.898438 191.152344 C 135.894531 189.375 138.5 183.886719 136.726562 178.890625 C 134.949219 173.898438 129.457031 171.285156 124.464844 173.0625 C 119.46875 174.839844 116.859375 180.332031 118.636719 185.324219 Z M 118.636719 185.324219 " clip-rule="nonzero"/></clipPath><clipPath id="2778052266"><path d="M 118 172.367188 L 137.40625 172.367188 L 137.40625 191.820312 L 118 191.820312 Z M 118 172.367188 " clip-rule="nonzero"/></clipPath><clipPath id="59df9c9718"><path d="M 121.851562 194.371094 L 115.417969 176.28125 L 133.507812 169.847656 L 139.941406 187.9375 Z M 121.851562 194.371094 " clip-rule="nonzero"/></clipPath><clipPath id="aeb12bef42"><path d="M 121.851562 194.371094 L 115.414062 176.265625 L 133.519531 169.824219 L 139.960938 187.929688 Z M 121.851562 194.371094 " clip-rule="nonzero"/></clipPath><clipPath id="ccaf77fd86"><path d="M 118.636719 185.324219 C 120.410156 190.320312 125.902344 192.929688 130.898438 191.152344 C 135.894531 189.375 138.5 183.886719 136.726562 178.890625 C 134.949219 173.898438 129.457031 171.285156 124.464844 173.0625 C 119.46875 174.839844 116.859375 180.332031 118.636719 185.324219 Z M 118.636719 185.324219 " clip-rule="nonzero"/></clipPath></defs><g clip-path="url(#316548292f)"><path stroke-linecap="butt" transform="matrix(0.0820662, -0.173577, 0.173577, 0.0820662, 66.357655, 179.813002)" fill="none" stroke-linejoin="miter" d="M 0.00471977 9.999612 L 104.627377 9.999358 " stroke="#1b4d3e" stroke-width="20" stroke-opacity="1" stroke-miterlimit="4"/></g><g clip-path="url(#0554e766bb)"><g clip-path="url(#0c6fdd9ea3)"><g clip-path="url(#a350572d67)"><path fill="#d95d39" d="M 74.15625 166.496094 L 67.722656 148.40625 L 85.8125 141.972656 L 92.246094 160.0625 Z M 74.15625 166.496094 " fill-opacity="1" fill-rule="nonzero"/></g></g></g><g clip-path="url(#f5976e81bb)"><g clip-path="url(#1c006f60c0)"><g clip-path="url(#ee3565e9a3)"><g clip-path="url(#1aac72049b)"><path stroke-linecap="butt" transform="matrix(-0.0643377, -0.1809, 0.1809, -0.0643377, 74.157261, 166.495095)" fill="none" stroke-linejoin="miter" d="M 50.002618 0.00661333 C 22.390573 -0.0102845 0.000445935 22.387003 0.00271696 50.005865 C 0.00498798 77.624728 22.383106 100.008038 50.001969 100.005767 C 77.620831 100.003496 100.004141 77.625377 100.00187 50.006515 C 99.999599 22.387652 77.621481 0.00434231 50.002618 0.00661333 Z M 50.002618 0.00661333 " stroke="#292524" stroke-width="40" stroke-opacity="1" stroke-miterlimit="4"/></g></g></g></g><path stroke-linecap="butt" transform="matrix(0.180767, -0.0647083, 0.0647083, 0.180767, 72.723751, 178.947439)" fill="none" stroke-linejoin="miter" d="M 0.00338795 9.994544 L 130.368051 10.006093 " stroke="#1b4d3e" stroke-width="20" stroke-opacity="1" stroke-miterlimit="4"/><g clip-path="url(#bad9967463)"><g clip-path="url(#edf80b1a42)"><g clip-path="url(#11b64a1e86)"><path fill="#d95d39" d="M 61.671875 194.113281 L 55.238281 176.023438 L 73.328125 169.585938 L 79.761719 187.679688 Z M 61.671875 194.113281 " fill-opacity="1" fill-rule="nonzero"/></g></g></g><g clip-path="url(#43067bffb1)"><g clip-path="url(#25c15a419c)"><g clip-path="url(#8b316bfe12)"><g clip-path="url(#03fd392d5a)"><path stroke-linecap="butt" transform="matrix(-0.0643377, -0.1809, 0.1809, -0.0643377, 61.671944, 194.111999)" fill="none" stroke-linejoin="miter" d="M 50.006399 -0.00842519 C 22.387536 -0.00615417 -0.00259137 22.391133 0.00649712 49.990827 C 0.00876815 77.609689 22.386886 99.992999 50.005749 99.990728 C 77.617794 100.007626 100.007921 77.610339 100.00565 49.991476 C 99.996562 22.391782 77.618444 0.0084726 50.006399 -0.00842519 Z M 50.006399 -0.00842519 " stroke="#292524" stroke-width="40" stroke-opacity="1" stroke-miterlimit="4"/></g></g></g></g><path stroke-linecap="butt" transform="matrix(0.0820662, -0.173577, 0.173577, 0.0820662, 90.754547, 191.556609)" fill="none" stroke-linejoin="miter" d="M 0.014847 10.003733 L 104.637504 10.003479 " stroke="#1b4d3e" stroke-width="20" stroke-opacity="1" stroke-miterlimit="4"/><g clip-path="url(#32a6b9accd)"><g clip-path="url(#aa20dac272)"><g clip-path="url(#663c741fdd)"><path fill="#d95d39" d="M 98.625 180.792969 L 92.191406 162.703125 L 110.28125 156.273438 L 116.714844 174.363281 Z M 98.625 180.792969 " fill-opacity="1" fill-rule="nonzero"/></g></g></g><g clip-path="url(#1469fe778b)"><g clip-path="url(#13af1de1b2)"><g clip-path="url(#8582b83b67)"><g clip-path="url(#3e66f0f8ee)"><path stroke-linecap="butt" transform="matrix(-0.0643377, -0.1809, 0.1809, -0.0643377, 98.624523, 180.79512)" fill="none" stroke-linejoin="miter" d="M 50.003125 -0.006572 C 22.384263 -0.00430098 0.000952982 22.373817 0.00322401 49.99268 C 0.00549503 77.611542 22.383613 99.994852 50.002476 99.992581 C 77.614521 100.009479 100.004648 77.612192 100.002377 49.993329 C 99.993289 22.393636 77.621988 -0.00884303 50.003125 -0.006572 Z M 50.003125 -0.006572 " stroke="#292524" stroke-width="40" stroke-opacity="1" stroke-miterlimit="4"/></g></g></g></g><path stroke-linecap="butt" transform="matrix(0.180767, -0.0647083, 0.0647083, 0.180767, 95.985481, 192.504979)" fill="none" stroke-linejoin="miter" d="M 0.00148315 9.999696 L 130.373002 9.992091 " stroke="#1b4d3e" stroke-width="20" stroke-opacity="1" stroke-miterlimit="4"/><g clip-path="url(#af215a0b9a)"><g clip-path="url(#3a3673c781)"><g clip-path="url(#00c1a1f217)"><path fill="#d95d39" d="M 85.03125 207.765625 L 78.597656 189.671875 L 96.6875 183.238281 L 103.121094 201.328125 Z M 85.03125 207.765625 " fill-opacity="1" fill-rule="nonzero"/></g></g></g><g clip-path="url(#8fd3d2a6dd)"><g clip-path="url(#e7ce50c126)"><g clip-path="url(#44728a2a81)"><g clip-path="url(#78c489b9cd)"><path stroke-linecap="butt" transform="matrix(-0.0643377, -0.1809, 0.1809, -0.0643377, 85.029513, 207.763477)" fill="none" stroke-linejoin="miter" d="M 49.998995 -0.00107394 C 22.380133 0.00119709 -0.00317695 22.379315 -0.000905928 49.998178 C 0.0013651 77.617041 22.379483 100.00035 49.998346 99.998079 C 77.617209 99.995808 100.000518 77.61769 99.998247 49.998827 C 99.995976 22.379965 77.617858 -0.00334496 49.998995 -0.00107394 Z M 49.998995 -0.00107394 " stroke="#292524" stroke-width="40" stroke-opacity="1" stroke-miterlimit="4"/></g></g></g></g><g clip-path="url(#af219bf79d)"><g clip-path="url(#78138fd47d)"><g clip-path="url(#31c26acbac)"><path fill="#d95d39" d="M 121.851562 194.371094 L 115.417969 176.28125 L 133.507812 169.847656 L 139.941406 187.9375 Z M 121.851562 194.371094 " fill-opacity="1" fill-rule="nonzero"/></g></g></g><g clip-path="url(#2778052266)"><g clip-path="url(#59df9c9718)"><g clip-path="url(#aeb12bef42)"><g clip-path="url(#ccaf77fd86)"><path stroke-linecap="butt" transform="matrix(-0.0643377, -0.1809, 0.1809, -0.0643377, 121.852307, 194.370748)" fill="none" stroke-linejoin="miter" d="M 50.005355 0.00906165 C 22.39331 -0.00783614 0.00318254 22.389451 0.00545357 50.008313 C 0.00772459 77.627176 22.39266 99.991317 50.004705 100.008215 C 77.604399 99.999126 100.013695 77.608657 100.004607 50.008963 C 100.002336 22.3901 77.605049 -0.0000268448 50.005355 0.00906165 Z M 50.005355 0.00906165 " stroke="#292524" stroke-width="40" stroke-opacity="1" stroke-miterlimit="4"/></g></g></g></g><g fill="#1b4d3e" fill-opacity="1"><g transform="translate(149.318484, 189.969403)"><g><path d="M 1.546875 -26.90625 L 6.625 -26.90625 L 11.96875 -7.890625 L 17.234375 -26.90625 L 21.015625 -26.90625 L 26.28125 -7.890625 L 31.640625 -26.90625 L 36.71875 -26.90625 L 29.0625 0 L 24.515625 0 L 19.125 -18.703125 L 13.734375 0 L 9.203125 0 Z M 1.546875 -26.90625 "/></g></g></g><g fill="#1b4d3e" fill-opacity="1"><g transform="translate(187.562375, 189.969403)"><g><path d="M 9.078125 0.578125 C 6.867188 0.578125 5.0625 -0.00390625 3.65625 -1.171875 C 2.25 -2.335938 1.546875 -3.910156 1.546875 -5.890625 C 1.546875 -7.941406 2.210938 -9.546875 3.546875 -10.703125 C 4.878906 -11.859375 6.75 -12.4375 9.15625 -12.4375 C 11.488281 -12.4375 13.503906 -11.957031 15.203125 -11 L 15.203125 -11.5 C 15.203125 -12.8125 14.796875 -13.757812 13.984375 -14.34375 C 13.179688 -14.9375 11.878906 -15.234375 10.078125 -15.234375 C 8.953125 -15.234375 7.835938 -15.125 6.734375 -14.90625 C 5.628906 -14.6875 4.65625 -14.390625 3.8125 -14.015625 L 3.8125 -17.8125 C 4.582031 -18.175781 5.613281 -18.472656 6.90625 -18.703125 C 8.195312 -18.929688 9.445312 -19.046875 10.65625 -19.046875 C 13.863281 -19.046875 16.238281 -18.359375 17.78125 -16.984375 C 19.320312 -15.617188 20.09375 -13.71875 20.09375 -11.28125 L 20.09375 0 L 15.515625 0 L 15.515625 -1.8125 C 14.710938 -1.039062 13.804688 -0.445312 12.796875 -0.03125 C 11.785156 0.375 10.546875 0.578125 9.078125 0.578125 Z M 10.28125 -2.96875 C 11.351562 -2.96875 12.328125 -3.175781 13.203125 -3.59375 C 14.078125 -4.019531 14.742188 -4.601562 15.203125 -5.34375 L 15.203125 -7.390625 C 13.785156 -8.390625 12.171875 -8.890625 10.359375 -8.890625 C 7.765625 -8.890625 6.46875 -7.890625 6.46875 -5.890625 C 6.46875 -4.910156 6.789062 -4.175781 7.4375 -3.6875 C 8.09375 -3.207031 9.039062 -2.96875 10.28125 -2.96875 Z M 10.28125 -2.96875 "/></g></g></g><g fill="#1b4d3e" fill-opacity="1"><g transform="translate(209.762303, 189.969403)"><g><path d="M 6.734375 7.625 C 6.066406 7.625 5.367188 7.578125 4.640625 7.484375 C 3.910156 7.390625 3.335938 7.269531 2.921875 7.125 L 2.921875 3.421875 C 3.566406 3.679688 4.363281 3.8125 5.3125 3.8125 C 6.28125 3.8125 7.007812 3.59375 7.5 3.15625 C 7.988281 2.71875 8.414062 2.023438 8.78125 1.078125 L 9.5 -0.84375 L 1.546875 -18.46875 L 6.421875 -18.46875 L 12.125 -5 L 17.46875 -18.46875 L 22.328125 -18.46875 L 14.234375 1.65625 C 13.410156 3.675781 12.414062 5.175781 11.25 6.15625 C 10.082031 7.132812 8.578125 7.625 6.734375 7.625 Z M 6.734375 7.625 "/></g></g></g><g fill="#1b4d3e" fill-opacity="1"><g transform="translate(232.847139, 189.969403)"><g><path d="M 2.3125 -18.46875 L 7 -18.46875 L 7 -16.234375 C 8 -17.191406 9.085938 -17.898438 10.265625 -18.359375 C 11.453125 -18.816406 12.800781 -19.046875 14.3125 -19.046875 C 16.1875 -19.046875 17.859375 -18.640625 19.328125 -17.828125 C 20.804688 -17.023438 21.960938 -15.882812 22.796875 -14.40625 C 23.628906 -12.9375 24.046875 -11.226562 24.046875 -9.28125 C 24.046875 -7.351562 23.628906 -5.644531 22.796875 -4.15625 C 21.960938 -2.664062 20.804688 -1.503906 19.328125 -0.671875 C 17.859375 0.160156 16.1875 0.578125 14.3125 0.578125 C 12.90625 0.578125 11.578125 0.378906 10.328125 -0.015625 C 9.085938 -0.410156 8.03125 -1.007812 7.15625 -1.8125 L 7.15625 8.421875 L 2.3125 8.421875 Z M 13.125 -3.234375 C 14.863281 -3.234375 16.296875 -3.796875 17.421875 -4.921875 C 18.554688 -6.054688 19.125 -7.507812 19.125 -9.28125 C 19.125 -11.050781 18.554688 -12.484375 17.421875 -13.578125 C 16.296875 -14.679688 14.863281 -15.234375 13.125 -15.234375 C 11.738281 -15.234375 10.503906 -14.859375 9.421875 -14.109375 C 8.347656 -13.367188 7.59375 -12.375 7.15625 -11.125 L 7.15625 -7.390625 C 7.570312 -6.128906 8.320312 -5.117188 9.40625 -4.359375 C 10.5 -3.609375 11.738281 -3.234375 13.125 -3.234375 Z M 13.125 -3.234375 "/></g></g></g><g fill="#1b4d3e" fill-opacity="1"><g transform="translate(258.432839, 189.969403)"><g><path d="M 12.359375 0.578125 C 10.203125 0.578125 8.304688 0.1875 6.671875 -0.59375 C 5.046875 -1.375 3.785156 -2.503906 2.890625 -3.984375 C 1.992188 -5.460938 1.546875 -7.210938 1.546875 -9.234375 C 1.546875 -11.210938 1.984375 -12.9375 2.859375 -14.40625 C 3.742188 -15.882812 5.007812 -17.023438 6.65625 -17.828125 C 8.300781 -18.640625 10.203125 -19.046875 12.359375 -19.046875 C 14.515625 -19.046875 16.40625 -18.640625 18.03125 -17.828125 C 19.65625 -17.023438 20.914062 -15.882812 21.8125 -14.40625 C 22.71875 -12.9375 23.171875 -11.210938 23.171875 -9.234375 C 23.171875 -7.210938 22.71875 -5.460938 21.8125 -3.984375 C 20.914062 -2.503906 19.65625 -1.375 18.03125 -0.59375 C 16.40625 0.1875 14.515625 0.578125 12.359375 0.578125 Z M 12.359375 -3.234375 C 14.128906 -3.234375 15.539062 -3.789062 16.59375 -4.90625 C 17.644531 -6.019531 18.171875 -7.460938 18.171875 -9.234375 C 18.171875 -11.109375 17.648438 -12.578125 16.609375 -13.640625 C 15.566406 -14.703125 14.148438 -15.234375 12.359375 -15.234375 C 10.554688 -15.234375 9.132812 -14.703125 8.09375 -13.640625 C 7.0625 -12.578125 6.546875 -11.109375 6.546875 -9.234375 C 6.546875 -7.460938 7.070312 -6.019531 8.125 -4.90625 C 9.175781 -3.789062 10.585938 -3.234375 12.359375 -3.234375 Z M 12.359375 -3.234375 "/></g></g></g><g fill="#1b4d3e" fill-opacity="1"><g transform="translate(283.133617, 189.969403)"><g><path d="M 5.046875 -21.703125 C 4.273438 -21.703125 3.625 -21.957031 3.09375 -22.46875 C 2.570312 -22.988281 2.3125 -23.632812 2.3125 -24.40625 C 2.3125 -25.164062 2.570312 -25.804688 3.09375 -26.328125 C 3.625 -26.859375 4.273438 -27.125 5.046875 -27.125 C 5.816406 -27.125 6.46875 -26.859375 7 -26.328125 C 7.539062 -25.804688 7.8125 -25.164062 7.8125 -24.40625 C 7.8125 -23.632812 7.539062 -22.988281 7 -22.46875 C 6.46875 -21.957031 5.816406 -21.703125 5.046875 -21.703125 Z M 2.578125 -18.46875 L 7.5 -18.46875 L 7.5 0 L 2.578125 0 Z M 2.578125 -18.46875 "/></g></g></g><g fill="#1b4d3e" fill-opacity="1"><g transform="translate(293.252478, 189.969403)"><g><path d="M 2.3125 -18.46875 L 7 -18.46875 L 7 -15.96875 C 7.875 -17.019531 8.914062 -17.796875 10.125 -18.296875 C 11.332031 -18.796875 12.601562 -19.046875 13.9375 -19.046875 C 16.425781 -19.046875 18.285156 -18.375 19.515625 -17.03125 C 20.742188 -15.6875 21.359375 -13.894531 21.359375 -11.65625 L 21.359375 0 L 16.515625 0 L 16.515625 -11.203125 C 16.515625 -13.890625 15.253906 -15.234375 12.734375 -15.234375 C 11.628906 -15.234375 10.585938 -14.96875 9.609375 -14.4375 C 8.640625 -13.914062 7.820312 -13.128906 7.15625 -12.078125 L 7.15625 0 L 2.3125 0 Z M 2.3125 -18.46875 "/></g></g></g><g fill="#1b4d3e" fill-opacity="1"><g transform="translate(316.722072, 189.969403)"><g><path d="M 9.734375 0.578125 C 7.710938 0.578125 6.175781 0.015625 5.125 -1.109375 C 4.070312 -2.242188 3.546875 -3.835938 3.546875 -5.890625 L 3.546875 -14.78125 L 0.765625 -14.78125 L 0.765625 -18.46875 L 3.546875 -18.46875 L 3.546875 -24.015625 L 8.390625 -24.015625 L 8.390625 -18.46875 L 12.8125 -18.46875 L 12.8125 -14.78125 L 8.390625 -14.78125 L 8.390625 -6.5 C 8.390625 -5.320312 8.609375 -4.484375 9.046875 -3.984375 C 9.484375 -3.484375 10.28125 -3.234375 11.4375 -3.234375 C 12.226562 -3.234375 13.007812 -3.410156 13.78125 -3.765625 L 13.78125 -0.078125 C 12.675781 0.359375 11.328125 0.578125 9.734375 0.578125 Z M 9.734375 0.578125 "/></g></g></g><g fill="#1b4d3e" fill-opacity="1"><g transform="translate(331.650268, 189.969403)"><g><path d="M 9.5 0.578125 C 8.164062 0.578125 6.742188 0.421875 5.234375 0.109375 C 3.722656 -0.191406 2.539062 -0.613281 1.6875 -1.15625 L 1.6875 -5.265625 C 2.6875 -4.648438 3.878906 -4.15625 5.265625 -3.78125 C 6.648438 -3.414062 7.960938 -3.234375 9.203125 -3.234375 C 10.429688 -3.234375 11.328125 -3.34375 11.890625 -3.5625 C 12.453125 -3.78125 12.734375 -4.179688 12.734375 -4.765625 C 12.734375 -5.234375 12.585938 -5.613281 12.296875 -5.90625 C 12.003906 -6.195312 11.53125 -6.460938 10.875 -6.703125 C 10.21875 -6.953125 9.207031 -7.257812 7.84375 -7.625 C 6.3125 -8.0625 5.101562 -8.507812 4.21875 -8.96875 C 3.332031 -9.425781 2.664062 -10.007812 2.21875 -10.71875 C 1.769531 -11.425781 1.546875 -12.34375 1.546875 -13.46875 C 1.546875 -15.3125 2.273438 -16.703125 3.734375 -17.640625 C 5.191406 -18.578125 7.164062 -19.046875 9.65625 -19.046875 C 10.9375 -19.046875 12.210938 -18.921875 13.484375 -18.671875 C 14.753906 -18.429688 15.75 -18.097656 16.46875 -17.671875 L 16.46875 -13.703125 C 15.695312 -14.160156 14.757812 -14.53125 13.65625 -14.8125 C 12.550781 -15.09375 11.425781 -15.234375 10.28125 -15.234375 C 9.019531 -15.234375 8.066406 -15.113281 7.421875 -14.875 C 6.785156 -14.632812 6.46875 -14.164062 6.46875 -13.46875 C 6.46875 -13.007812 6.640625 -12.644531 6.984375 -12.375 C 7.328125 -12.101562 7.78125 -11.867188 8.34375 -11.671875 C 8.914062 -11.484375 9.945312 -11.195312 11.4375 -10.8125 C 13.019531 -10.375 14.257812 -9.898438 15.15625 -9.390625 C 16.0625 -8.878906 16.707031 -8.265625 17.09375 -7.546875 C 17.476562 -6.828125 17.671875 -5.925781 17.671875 -4.84375 C 17.671875 -3.207031 16.96875 -1.894531 15.5625 -0.90625 C 14.164062 0.0820312 12.144531 0.578125 9.5 0.578125 Z M 9.5 0.578125 "/></g></g></g></svg>